<?xml version="1.0" standalone="no"?>
<!DOCTYPE svg PUBLIC "-//W3C//DTD SVG 20010904//EN"
 "http://www.w3.org/TR/2001/REC-SVG-20010904/DTD/svg10.dtd">
<svg version="1.0" xmlns="http://www.w3.org/2000/svg"
 width="640.000000pt" height="640.000000pt" viewBox="0 0 640.000000 640.000000"
 preserveAspectRatio="xMidYMid meet">
<metadata>
Created by potrace 1.11, written by Peter Selinger 2001-2013
</metadata>
<g transform="translate(0.000000,640.000000) scale(0.100000,-0.100000)"
fill="#000000" stroke="none">
<path d="M3175 6173 c-70 -14 -117 -29 -170 -55 -59 -29 -139 -88 -161 -118
-7 -8 -24 -28 -38 -45 -35 -39 -91 -156 -106 -223 -11 -46 -15 -180 -8 -236 2
-16 -42 -48 -222 -158 -124 -75 -236 -144 -250 -153 -14 -9 -152 -94 -308
-188 l-282 -173 -61 57 c-106 98 -236 149 -379 150 -160 0 -292 -54 -405 -166
-117 -118 -168 -240 -168 -405 -1 -161 50 -285 164 -401 50 -51 87 -77 151
-108 46 -23 92 -41 100 -41 9 0 18 -6 20 -12 2 -7 5 -301 7 -654 l2 -640 -56
-18 c-279 -88 -447 -391 -374 -676 51 -197 183 -341 373 -405 189 -63 411 -20
553 109 l52 47 83 -50 c46 -27 99 -58 118 -68 71 -41 846 -490 866 -502 19
-13 20 -16 7 -64 -43 -169 23 -396 153 -519 87 -83 142 -116 238 -145 99 -30
211 -33 311 -8 95 24 223 99 275 162 51 62 79 105 102 158 42 97 50 138 49
240 0 67 -2 79 -15 135 -6 24 10 34 316 210 177 102 344 198 372 214 28 15
119 67 201 116 228 133 201 124 255 80 223 -185 549 -170 756 35 116 115 165
224 170 381 7 194 -65 354 -217 480 -31 25 -166 94 -185 94 -12 0 -14 105 -14
634 l0 633 48 18 c270 102 423 410 343 689 -56 190 -219 349 -413 400 -77 20
-237 14 -313 -13 -76 -26 -129 -55 -182 -97 l-41 -34 -129 76 c-70 42 -148 88
-173 102 -25 14 -88 51 -140 82 -52 31 -215 127 -361 214 l-267 156 4 110 c5
175 -43 304 -158 422 -109 112 -231 167 -383 172 -49 2 -99 2 -110 -1z m-193
-1065 c45 -25 119 -53 169 -64 13 -3 65 -5 114 -6 139 0 282 55 377 147 l46
44 133 -80 c73 -43 134 -79 135 -79 2 0 552 -325 689 -407 22 -13 55 -31 73
-40 23 -12 31 -22 26 -32 -17 -41 -22 -90 -19 -184 4 -159 57 -278 176 -395
52 -50 177 -122 242 -137 15 -4 27 -12 28 -19 3 -42 -2 -1231 -6 -1234 -3 -3
-30 -14 -61 -24 -186 -63 -332 -238 -368 -443 -10 -53 -8 -159 3 -209 10 -43
10 -50 -6 -62 -10 -7 -21 -14 -24 -14 -3 0 -44 -22 -90 -49 -46 -27 -149 -87
-229 -133 -79 -45 -165 -95 -190 -109 -25 -15 -144 -84 -265 -153 -121 -70
-234 -136 -251 -147 -31 -19 -31 -19 -60 4 -16 12 -36 29 -45 38 -29 29 -146
79 -220 95 -167 35 -356 -11 -479 -116 -19 -16 -38 -30 -41 -30 -5 0 -198 109
-249 141 -17 11 -538 312 -590 341 -19 11 -64 37 -100 58 -36 21 -85 49 -110
63 -35 20 -44 30 -42 49 1 13 3 68 3 123 2 145 -34 249 -127 363 -62 77 -183
161 -254 177 -17 4 -30 10 -31 13 0 4 -2 300 -4 659 l-3 652 54 17 c30 9 59
23 65 30 6 8 16 14 22 14 20 0 121 86 157 135 91 121 124 220 123 371 l0 100
71 43 c99 60 452 275 506 310 25 15 146 90 269 164 l223 136 57 -48 c31 -26
77 -59 103 -73z"/>
<path d="M3158 4245 c-2 -2 -23 -6 -48 -9 -25 -3 -76 -15 -114 -26 -330 -102
-581 -379 -659 -725 -21 -91 -24 -131 -22 -235 3 -132 4 -143 36 -259 89 -330
357 -595 689 -681 153 -40 360 -33 515 16 303 97 564 381 636 692 21 91 24
118 24 242 0 156 -8 210 -46 324 -133 400 -493 664 -906 664 -55 0 -103 -1
-105 -3z"/>
</g>
</svg>
